<svg width="40" height="40" viewBox="0 0 48 48" fill="#886998" xmlns="http://www.w3.org/2000/svg">
<path d="M41.25 5.25H6.75C5.92031 5.25 5.25 5.92031 5.25 6.75V41.25C5.25 42.0797 5.92031 42.75 6.75 42.75H41.25C42.0797 42.75 42.75 42.0797 42.75 41.25V6.75C42.75 5.92031 42.0797 5.25 41.25 5.25ZM28.0547 16.4484H34.5422V18.0281H28.0547V16.4484ZM24 29.475C23.6966 30.051 23.2633 30.5485 22.7344 30.9281C22.1812 31.3125 21.5672 31.5938 20.9156 31.7578C20.2339 31.9405 19.5307 32.0304 18.825 32.025H11.0625V16.0359H18.6094C19.3734 16.0359 20.0672 16.1062 20.7 16.2375C21.3281 16.3687 21.8625 16.5938 22.3125 16.8984C22.7578 17.2031 23.1094 17.6109 23.3578 18.1172C23.6016 18.6187 23.7281 19.2469 23.7281 19.9922C23.7281 20.7984 23.5453 21.4641 23.1797 22.0031C22.8094 22.5422 22.275 22.9781 21.5484 23.3203C22.5375 23.6016 23.2641 24.1031 23.7422 24.8063C24.2297 25.5188 24.4688 26.3719 24.4688 27.375C24.4688 28.1906 24.3141 28.8891 24 29.475ZM37.0687 27H28.7063C28.7063 27.9094 29.0203 28.7812 29.4938 29.25C29.9719 29.7141 30.6562 29.9484 31.5516 29.9484C32.1984 29.9484 32.7469 29.7844 33.2156 29.4609C33.6797 29.1375 33.9609 28.7953 34.0641 28.4391H36.8672C36.4172 29.8313 35.7328 30.825 34.8047 31.425C33.8859 32.025 32.7609 32.325 31.4531 32.325C30.5391 32.325 29.7188 32.175 28.9828 31.8891C28.275 31.6125 27.6375 31.1906 27.1125 30.6469C26.5949 30.0885 26.1947 29.4317 25.9359 28.7156C25.65 27.9234 25.5094 27.0891 25.5188 26.25C25.5188 25.3828 25.6641 24.5766 25.9453 23.8266C26.4844 22.3687 27.6047 21.2016 29.0344 20.5969C29.7984 20.2781 30.6188 20.1187 31.4484 20.1281C32.4328 20.1281 33.2859 20.3156 34.0266 20.7C34.7396 21.067 35.3586 21.5931 35.8359 22.2375C36.3094 22.8797 36.6422 23.6109 36.8531 24.4359C37.0547 25.2469 37.125 26.1 37.0687 27ZM31.35 22.5187C30.8438 22.5187 30.4172 22.6078 30.0891 22.7812C29.7609 22.9547 29.4891 23.1703 29.2828 23.4188C29.0864 23.6586 28.9412 23.9362 28.8562 24.2344C28.7812 24.4828 28.7297 24.7359 28.7109 24.9938H33.8906C33.8156 24.1828 33.5344 23.5828 33.1594 23.1609C32.7656 22.7437 32.1328 22.5187 31.35 22.5187ZM19.7016 22.0453C20.1094 21.75 20.3063 21.2625 20.3063 20.5922C20.3203 20.2734 20.2547 19.9594 20.1141 19.6734C19.9875 19.4438 19.8 19.2516 19.5703 19.1156C19.3322 18.9712 19.0676 18.8756 18.7922 18.8344C18.4922 18.7781 18.1875 18.75 17.8875 18.7547H14.5922V22.4906H18.1594C18.7734 22.4953 19.2937 22.3453 19.7016 22.0453ZM20.2547 25.4203C19.7953 25.0687 19.1812 24.8953 18.4172 24.8953H14.5828V29.3016H18.3422C18.6937 29.3016 19.0172 29.2687 19.3312 29.2031C19.6453 29.1375 19.9266 29.025 20.1656 28.8656C20.4047 28.7109 20.5969 28.5 20.7422 28.2281C20.8828 27.9563 20.9531 27.6094 20.9531 27.1922C20.9531 26.3625 20.7188 25.7766 20.2547 25.4203Z" 
fill="#0316BB"/>
</svg>
